<?xml version="1.0" encoding="UTF-8" standalone="no" ?>
<!DOCTYPE svg PUBLIC "-//W3C//DTD SVG 1.1//EN" "http://www.w3.org/Graphics/SVG/1.1/DTD/svg11.dtd">
<svg xmlns="http://www.w3.org/2000/svg" xmlns:xlink="http://www.w3.org/1999/xlink" version="1.1" width="640" height="480" viewBox="0 0 640 480" xml:space="preserve">
<desc>Created with Fabric.js 3.6.6</desc>
<defs>
</defs>
<rect x="0" y="0" width="100%" height="100%" fill="rgba(210, 43, 43, 0)"></rect>
<g transform="matrix(1 0 0 1 320.5 256.5)"  >
<path style="stroke: none; stroke-width: 1; stroke-dasharray: none; stroke-linecap: butt; stroke-dashoffset: 0; stroke-linejoin: miter; stroke-miterlimit: 4; fill: rgb(59,104,220); fill-rule: nonzero; opacity: 1;"  transform=" translate(-320, -256)" d="M 255 261.7 c 6.3 6.3 16.4 6.3 22.6 0 l 11.3 -11.3 c 6.3 -6.3 6.3 -16.4 0 -22.6 L 253.3 192 l 35.7 -35.7 c 6.3 -6.3 6.3 -16.4 0 -22.6 l -11.3 -11.3 c -6.3 -6.3 -16.4 -6.3 -22.6 0 l -58.3 58.3 c -6.3 6.3 -6.3 16.4 0 22.6 l 58.4 58.3 z m 96 -11.3 l 11.3 11.3 c 6.3 6.3 16.4 6.3 22.6 0 l 58.3 -58.3 c 6.3 -6.3 6.3 -16.4 0 -22.6 l -58.3 -58.3 c -6.3 -6.3 -16.4 -6.3 -22.6 0 l -11.3 11.3 c -6.3 6.3 -6.3 16.4 0 22.6 L 386.8 192 l -35.7 35.7 c -6.3 6.3 -6.3 16.4 0 22.6 z M 624 416 H 381.5 c -0.7 19.8 -14.7 32 -32.7 32 H 288 c -18.7 0 -33 -17.5 -32.8 -32 H 16 c -8.8 0 -16 7.2 -16 16 v 16 c 0 35.2 28.8 64 64 64 h 512 c 35.2 0 64 -28.8 64 -64 v -16 c 0 -8.8 -7.2 -16 -16 -16 z M 576 48 c 0 -26.4 -21.6 -48 -48 -48 H 112 C 85.6 0 64 21.6 64 48 v 336 h 512 V 48 z m -64 272 H 128 V 64 h 384 v 256 z" stroke-linecap="round" />
</g>
</svg>
